<svg xmlns="http://www.w3.org/2000/svg"><symbol id="mecha-stilts" viewBox="0 0 189.8 219.2"><path d="M34.4 113h121v9.9h-121z"/><path d="M94.9 0L0 54.8v109.6l94.9 54.8 94.9-54.8V54.8zm77.6 126.5h-23.8v21.8a1.7 1.7 0 0 1-1.8 1.8h-104a1.7 1.7 0 0 1-1.8-1.8v-21.8H17.3a1.8 1.8 0 0 1 0-3.6h13.5v-11.7a1.7 1.7 0 0 1 1.8-1.8h7.1a57 57 0 0 1 55-43.7c.2-.2.4-.2.7 0a57 57 0 0 1 54.8 43.7h7a1.7 1.7 0 0 1 1.8 1.8v11.7h13.5a1.8 1.8 0 1 1 0 3.6z"/><path d="M96.7 126.5h8.1v19.98h-8.1zm-52 0h48.4v19.98H44.7zm63.7 0h36.7v19.98h-36.7zm-15.3-17.1V73.1l-25.9 36.3h25.9zm3.6-40.1v40.1h49.7a53.6 53.6 0 0 0-49.7-40.1zm-5.4.2c-23 1.4-42.3 18.1-47.9 39.9h19.3z"/><path fill="none" d="M172.5 122.9H159v-11.7a1.7 1.7 0 0 0-1.8-1.8h-7a57 57 0 0 0-54.8-43.7c-.3-.2-.5-.2-.7 0a57 57 0 0 0-55 43.7h-7.1a1.7 1.7 0 0 0-1.8 1.8v11.7H17.3a1.8 1.8 0 0 0 0 3.6h23.8v21.8a1.7 1.7 0 0 0 1.8 1.8h104a1.7 1.7 0 0 0 1.8-1.8v-21.8h23.8a1.8 1.8 0 1 0 0-3.6zM96.7 69.3a53.6 53.6 0 0 1 49.7 40.1H96.7zm-5.4.2l-28.6 39.9H43.4C49 87.6 68.3 70.9 91.3 69.5zm1.8 3.6v36.3H67.2zm0 73.4H44.7v-20h48.4zm11.7 0h-8.1v-20h8.1zm40.3 0h-36.7v-20h36.7zm10.3-23.6h-121V113h121z"/></symbol><symbol id="super-domes" viewBox="0 0 189.8 219.2"><path d="M104.3 135.2h18v11.34h-18zm-15.1 0h11.5v11.34H89.2z"/><path d="M0 54.8v109.6l94.9 54.8 94.9-54.8V54.8L94.9 0zm138.1 41.3H150a1.7 1.7 0 0 1 1.8 1.8v35.5a1.7 1.7 0 0 1-1.8 1.8h-9v11.3h9a1.8 1.8 0 0 1 0 3.6H39.8a1.8 1.8 0 0 1 0-3.6h9v-11.3h-9a1.8 1.8 0 0 1-1.8-1.8V97.9a1.7 1.7 0 0 1 1.8-1.8h11.9c.9-25.6 20-39.6 43.2-39.6s42.3 14 43.2 39.6z"/><path d="M125.9 135.2h11.5v11.34h-11.5zm-84.3-3.6h106.6V99.7H41.6zM94 119.3h43.9a1.8 1.8 0 0 1 0 3.6H94a1.8 1.8 0 1 1 0-3.6zM55.3 96.1h79.2c-.9-23.2-18.5-36-39.6-36s-38.7 12.8-39.6 36zm-2.9 39.1h11.5v11.34H52.4zm15.2 0h18v11.34h-18z"/><path fill="none" d="M51.7 96.1H39.8a1.7 1.7 0 0 0-1.8 1.8v35.5a1.8 1.8 0 0 0 1.8 1.8h9v11.3h-9a1.8 1.8 0 0 0 0 3.6H150a1.8 1.8 0 0 0 0-3.6h-9v-11.3h9a1.7 1.7 0 0 0 1.8-1.8V97.9a1.7 1.7 0 0 0-1.8-1.8h-11.9c-.9-25.6-20-39.6-43.2-39.6s-42.3 14-43.2 39.6zM64 146.5H52.4v-11.3H64zm21.5 0H67.6v-11.3h17.9zm15.2 0H89.2v-11.3h11.5zm21.6 0h-18v-11.3h18zm15.1 0h-11.5v-11.3h11.5zm10.8-46.8v31.9H41.6V99.7zm-13.7-3.6H55.3c.9-23.2 18.5-36 39.6-36s38.7 12.8 39.6 36z"/><path fill="none" d="M94 122.9h43.9a1.8 1.8 0 0 0 0-3.6H94a1.8 1.8 0 1 0 0 3.6z"/></symbol><symbol id="space-bubbles" viewBox="0 0 189.8 219.2"><path d="M68.6 128.3H56.8L40.9 147l2.5 3.6 30.5-16-5.3-6.3zm-9.3 18.2h24.5l-7.4-9-17.1 9zm14-18.2l15.1 18.2h13l15.1-18.2H73.3zm32.8 18.2h24.5l-17.1-9-7.4 9zm26.6-34.7a42.3 42.3 0 0 0 2.2-13.7 39 39 0 0 0-78 0c0 4.7.4 9.5 2.2 13.7zm-86 3.6h98.5v9.36H46.7zm74.5 12.9l-5.4 6.3 30.6 16 2.5-3.4-15.8-18.9h-11.9z"/><path d="M94.9 0L0 54.8v109.6l94.9 54.8 94.9-54.8V54.8zm57.6 148.1l-4.1 5.9a2 2 0 0 1-2.4.6l-8.6-4.5H52.3l-8.7 4.5a1.9 1.9 0 0 1-2.3-.6l-4.2-5.9a2.2 2.2 0 0 1 .2-2.2l15-17.6h-7.4a1.7 1.7 0 0 1-1.8-1.8v-12.9a1.7 1.7 0 0 1 1.8-1.8h10.4a53.4 53.4 0 0 1-2-13.7 42.6 42.6 0 0 1 85.2 0 45.9 45.9 0 0 1-2 13.7h10.4a1.7 1.7 0 0 1 1.8 1.8v12.9a1.7 1.7 0 0 1-1.8 1.8h-9.1l14.7 17.6a1.8 1.8 0 0 1 0 2.2z"/><path d="M96 59.2a39 39 0 0 1 38.9 38.9 42.3 42.3 0 0 1-2.2 13.7H59.1c-1.8-4.2-2.2-9-2.2-13.7A39.2 39.2 0 0 1 96 59.2zm-49.3 65.5v-9.3h98.4v9.3zm-3.3 25.9l-2.5-3.6 15.9-18.7h11.8l5.3 6.3zm15.9-4.1l17.1-9 7.4 9zm29.1 0l-15.1-18.2h43.2l-15.1 18.2zm17.7 0l7.4-9 17.1 9zm40.3 4.1l-30.6-16 5.4-6.3h11.9l15.8 18.9z"/></symbol></svg>